<svg width="421" height="178" viewBox="0 0 421 178" fill="none" xmlns="http://www.w3.org/2000/svg">
<ellipse cx="131" cy="89" rx="131" ry="79" fill="#FF5F2E"/>
<ellipse cx="334" cy="89" rx="87" ry="79" fill="#000044"/>
<path d="M61.4156 66.96H77.3356V61.52H38.5356V66.96H54.9356V76.08C54.9356 88.24 46.2956 101.84 36.0556 106.96L39.8956 112.16C47.9756 108 54.9356 98.88 58.2156 88.4C61.4956 98 68.2156 106.4 76.2156 110.4L79.9756 105.12C69.5756 100.24 61.4156 87.52 61.4156 76.08V66.96ZM104.296 83.12H92.4556V54.24H85.8956V125.92H92.4556V88.64H104.296V83.12ZM121.969 105.44H163.329V125.76H169.969V100.16H121.969V105.44ZM163.329 54.16V66.96H147.489C148.129 64.4 148.449 61.68 148.449 58.96H115.649V64.32H141.409C140.129 76.56 129.249 86.08 111.889 90.8L114.529 96.08C129.889 91.76 141.009 83.6 145.809 72.32H163.329V82.16H144.769V87.52H163.329V96.96H169.969V54.16H163.329ZM190.443 83.92C202.203 82.48 212.923 77.28 216.923 69.44C220.843 77.28 231.643 82.48 243.403 83.92L245.723 78.72C233.003 77.36 221.483 71.12 221.163 63.12H243.483V57.84H190.443V63.12H212.683C212.363 71.12 200.843 77.36 188.123 78.72L190.443 83.92ZM216.843 120.64C205.563 120.64 198.923 117.84 198.923 112.8C198.923 107.84 205.563 104.96 216.843 104.96C228.043 104.96 234.763 107.84 234.763 112.8C234.763 117.84 228.043 120.64 216.843 120.64ZM216.843 99.84C201.483 99.84 192.283 104.48 192.283 112.8C192.283 121.2 201.483 125.84 216.843 125.84C232.123 125.84 241.403 121.2 241.403 112.8C241.403 104.48 232.123 99.84 216.843 99.84ZM184.443 88.32V93.6H249.323V88.32H184.443Z" fill="black"/>
<path d="M299.637 84.72C290.197 86.64 282.037 87.12 267.717 87.12V65.04H292.917V59.76H261.237V92.56H266.837C282.037 92.56 290.517 92 300.357 90L299.637 84.72ZM295.317 97.76H288.837V100.48C288.837 110.72 277.637 118.32 264.837 120.48L267.477 125.6C278.197 123.68 287.797 118.24 292.117 110.08C296.357 118.24 305.957 123.68 316.597 125.6L319.237 120.48C306.437 118.32 295.317 110.72 295.317 100.48V97.76ZM313.717 74.24V54.16H307.157V101.52H313.717V79.68H324.277V74.24H313.717ZM336.751 58.32V63.6H361.711C361.471 66.4 360.911 68.96 359.951 71.44L333.151 72.64L334.271 78L357.311 76.24C352.991 82.8 345.231 87.92 333.631 91.44L336.111 96.64C358.431 89.84 368.591 76.56 368.591 58.32H336.751ZM350.831 104.64H384.271V119.68H350.831V104.64ZM344.351 124.96H390.751V99.44H344.351V124.96ZM384.111 54.24V73.12H368.431V78.56H384.111V95.6H390.751V54.24H384.111Z" fill="white"/>
</svg>
