<svg width="314" height="141" viewBox="0 0 314 141" fill="none" xmlns="http://www.w3.org/2000/svg">
<ellipse cx="97.7055" cy="70.4999" rx="97.7055" ry="62.5787" fill="#FF5F2E"/>
<ellipse cx="249.111" cy="70.4999" rx="64.8884" ry="62.5787" fill="#000044"/>
<path d="M45.1596 54.22H57.0996V50.14H27.9996V54.22H40.2996V61.06C40.2996 70.18 33.8196 80.38 26.1396 84.22L29.0196 88.12C35.0796 85 40.2996 78.16 42.7596 70.3C45.2196 77.5 50.2596 83.8 56.2596 86.8L59.0796 82.84C51.2796 79.18 45.1596 69.64 45.1596 61.06V54.22ZM77.3196 66.34H68.4396V44.68H63.5196V98.44H68.4396V70.48H77.3196V66.34ZM90.5749 83.08H121.595V98.32H126.575V79.12H90.5749V83.08ZM121.595 44.62V54.22H109.715C110.195 52.3 110.435 50.26 110.435 48.22H85.8349V52.24H105.155C104.195 61.42 96.0349 68.56 83.0149 72.1L84.9949 76.06C96.5149 72.82 104.855 66.7 108.455 58.24H121.595V65.62H107.675V69.64H121.595V76.72H126.575V44.62H121.595ZM141.93 66.94C150.75 65.86 158.79 61.96 161.79 56.08C164.73 61.96 172.83 65.86 181.65 66.94L183.39 63.04C173.85 62.02 165.21 57.34 164.97 51.34H181.71V47.38H141.93V51.34H158.61C158.37 57.34 149.73 62.02 140.19 63.04L141.93 66.94ZM161.73 94.48C153.27 94.48 148.29 92.38 148.29 88.6C148.29 84.88 153.27 82.72 161.73 82.72C170.13 82.72 175.17 84.88 175.17 88.6C175.17 92.38 170.13 94.48 161.73 94.48ZM161.73 78.88C150.21 78.88 143.31 82.36 143.31 88.6C143.31 94.9 150.21 98.38 161.73 98.38C173.19 98.38 180.15 94.9 180.15 88.6C180.15 82.36 173.19 78.88 161.73 78.88ZM137.43 70.24V74.2H186.09V70.24H137.43Z" fill="black"/>
<path d="M223.826 67.54C216.746 68.98 210.626 69.34 199.886 69.34V52.78H218.786V48.82H195.026V73.42H199.226C210.626 73.42 216.986 73 224.366 71.5L223.826 67.54ZM220.586 77.32H215.726V79.36C215.726 87.04 207.326 92.74 197.726 94.36L199.706 98.2C207.746 96.76 214.946 92.68 218.186 86.56C221.366 92.68 228.566 96.76 236.546 98.2L238.526 94.36C228.926 92.74 220.586 87.04 220.586 79.36V77.32ZM234.386 59.68V44.62H229.466V80.14H234.386V63.76H242.306V59.68H234.386ZM251.661 47.74V51.7H270.381C270.201 53.8 269.781 55.72 269.061 57.58L248.961 58.48L249.801 62.5L267.081 61.18C263.841 66.1 258.021 69.94 249.321 72.58L251.181 76.48C267.921 71.38 275.541 61.42 275.541 47.74H251.661ZM262.221 82.48H287.301V93.76H262.221V82.48ZM257.361 97.72H292.161V78.58H257.361V97.72ZM287.181 44.68V58.84H275.421V62.92H287.181V75.7H292.161V44.68H287.181Z" fill="white"/>
</svg>
