<svg width="248" height="110" viewBox="0 0 248 110" fill="none" xmlns="http://www.w3.org/2000/svg">
<ellipse cx="77.1686" cy="54.9999" rx="77.1686" ry="48.8202" fill="#FF5F2E"/>
<ellipse cx="196.75" cy="54.9999" rx="51.2494" ry="48.8202" fill="#000044"/>
<path d="M40.3126 42.165H49.2676V39.105H27.4426V42.165H36.6676V47.295C36.6676 54.135 31.8076 61.785 26.0476 64.665L28.2076 67.59C32.7526 65.25 36.6676 60.12 38.5126 54.225C40.3576 59.625 44.1376 64.35 48.6376 66.6L50.7526 63.63C44.9026 60.885 40.3126 53.73 40.3126 47.295V42.165ZM64.4326 51.255H57.7726V35.01H54.0826V75.33H57.7726V54.36H64.4326V51.255ZM74.3741 63.81H97.6391V75.24H101.374V60.84H74.3741V63.81ZM97.6391 34.965V42.165H88.7291C89.0891 40.725 89.2691 39.195 89.2691 37.665H70.8191V40.68H85.3091C84.5891 47.565 78.4691 52.92 68.7041 55.575L70.1891 58.545C78.8291 56.115 85.0841 51.525 87.7841 45.18H97.6391V50.715H87.1991V53.73H97.6391V59.04H101.374V34.965H97.6391ZM112.891 51.705C119.506 50.895 125.536 47.97 127.786 43.56C129.991 47.97 136.066 50.895 142.681 51.705L143.986 48.78C136.831 48.015 130.351 44.505 130.171 40.005H142.726V37.035H112.891V40.005H125.401C125.221 44.505 118.741 48.015 111.586 48.78L112.891 51.705ZM127.741 72.36C121.396 72.36 117.661 70.785 117.661 67.95C117.661 65.16 121.396 63.54 127.741 63.54C134.041 63.54 137.821 65.16 137.821 67.95C137.821 70.785 134.041 72.36 127.741 72.36ZM127.741 60.66C119.101 60.66 113.926 63.27 113.926 67.95C113.926 72.675 119.101 75.285 127.741 75.285C136.336 75.285 141.556 72.675 141.556 67.95C141.556 63.27 136.336 60.66 127.741 60.66ZM109.516 54.18V57.15H146.011V54.18H109.516Z" fill="black"/>
<path d="M174.312 52.155C169.002 53.235 164.412 53.505 156.357 53.505V41.085H170.532V38.115H152.712V56.565H155.862C164.412 56.565 169.182 56.25 174.717 55.125L174.312 52.155ZM171.882 59.49H168.237V61.02C168.237 66.78 161.937 71.055 154.737 72.27L156.222 75.15C162.252 74.07 167.652 71.01 170.082 66.42C172.467 71.01 177.867 74.07 183.852 75.15L185.337 72.27C178.137 71.055 171.882 66.78 171.882 61.02V59.49ZM182.232 46.26V34.965H178.542V61.605H182.232V49.32H188.172V46.26H182.232ZM195.189 37.305V40.275H209.229C209.094 41.85 208.779 43.29 208.239 44.685L193.164 45.36L193.794 48.375L206.754 47.385C204.324 51.075 199.959 53.955 193.434 55.935L194.829 58.86C207.384 55.035 213.099 47.565 213.099 37.305H195.189ZM203.109 63.36H221.919V71.82H203.109V63.36ZM199.464 74.79H225.564V60.435H199.464V74.79ZM221.829 35.01V45.63H213.009V48.69H221.829V58.275H225.564V35.01H221.829Z" fill="white"/>
</svg>
